
	<svg xmlns="http://www.w3.org/2000/svg" xmlns:xlink="http://www.w3.org/1999/xlink" version="1.1" width="128" height="128" viewBox="0 0 100 100">


		<defs>
			false
			
	<linearGradient id="background-gradient" x1="0" y1="0" y2="1" x2="0" >
		<stop stop-color="#fff" offset="0%"/>
		<stop stop-color="#000" offset="100%"/>
	</linearGradient>

			
			
			<g transform="scale(3.3333333333333335)" id="picture"><path d="M15 0C6.7 0 0 6.7 0 15s6.7 15 15 15 15-6.7 15-15S23.3 0 15 0zm5.5 9c.8 0 1.5.7 1.5 1.5s-.7 1.5-1.5 1.5-1.5-.7-1.5-1.5.7-1.5 1.5-1.5zM7 10.5c0-.3.2-.5.5-.5h3c.3 0 .5.2.5.5s-.2.5-.5.5h-3c-.3 0-.5-.2-.5-.5zm15.6 9.3C21 22.4 18.1 24 15 24c-3.1 0-5.9-1.6-7.6-4.1-.1-.2-.1-.5.2-.7.2-.1.5-.1.7.2 1.5 2.3 4 3.7 6.7 3.7 2.8 0 5.3-1.4 6.8-3.7.1-.2.5-.3.7-.2.2.1.3.4.1.6z"/></g>
			
	<linearGradient id="picture-gradient" x1="0" y1="0" y2="1" x2="0" >
		<stop stop-color="#00ffc2" offset="0%"/>
		<stop stop-color="#7000ff" offset="100%"/>
	</linearGradient>

		</defs>

		

			<use xlink:href="#background" fill="url(#background-gradient)" />

		

			<g mask="url(#mask)">
				<g transform="
				        translate(
                                50 50
)
                            translate(0 0)  scale(0.5)  
                            translate(
                                -50 -50
)">
						<use xlink:href="#picture" fill="url(#picture-gradient)"  />
				</g>
			</g>

		



	</svg>
