
	<svg xmlns="http://www.w3.org/2000/svg" xmlns:xlink="http://www.w3.org/1999/xlink" version="1.1" width="128" height="128" viewBox="0 0 100 100">


		<defs>
			false
			
	<linearGradient id="background-gradient" x1="0" y1="0" y2="1" x2="0" >
		<stop stop-color="#fff" offset="0%"/>
		<stop stop-color="#000" offset="100%"/>
	</linearGradient>

			
			
			<g transform="scale(3.3333333333333335)" id="picture"><path d="M15 0C6.7 0 0 6.7 0 15s6.7 15 15 15 15-6.7 15-15S23.3 0 15 0zm0 2c5.4 0 10 3.3 12 8H16.5c-.3 0-.5.2-.5.5V12h-2v-1.5c0-.3-.2-.5-.5-.5H3c2-4.7 6.6-8 12-8zm2 9h6v3.5c0 .3-.2.5-.5.5h-5c-.3 0-.5-.2-.5-.5V11zm-4 3.5c0 .3-.2.5-.5.5h-5c-.3 0-.5-.2-.5-.5V11h6v3.5zM15 28C7.8 28 2 22.2 2 15c0-1.4.2-2.7.6-4H6v3.5c0 .8.7 1.5 1.5 1.5h5c.8 0 1.5-.7 1.5-1.5V13h2v1.5c0 .8.7 1.5 1.5 1.5h5c.8 0 1.5-.7 1.5-1.5V11h3.4c.4 1.3.6 2.6.6 4 0 7.2-5.8 13-13 13z M22.1 19.2C20.2 21.6 17.7 23 15 23s-5.2-1.4-7.1-3.8c-.2-.2-.5-.3-.7-.1-.2.2-.3.5-.1.7C9.2 22.5 12 24 15 24s5.8-1.5 7.9-4.2c.2-.2.1-.5-.1-.7-.2-.2-.5-.1-.7.1zM10 14c.6 0 1-.4 1-1s-.4-1-1-1-1 .4-1 1 .4 1 1 1zm0-1.5v.5-.5zM20 14c.6 0 1-.4 1-1s-.4-1-1-1-1 .4-1 1 .4 1 1 1zm0-1.5v.5-.5z"/></g>
			
	<linearGradient id="picture-gradient" x1="0" y1="0" y2="1" x2="0" >
		<stop stop-color="#00ffc2" offset="0%"/>
		<stop stop-color="#7000ff" offset="100%"/>
	</linearGradient>

		</defs>

		

			<use xlink:href="#background" fill="url(#background-gradient)" />

		

			<g mask="url(#mask)">
				<g transform="
				        translate(
                                50 50
)
                            translate(0 0)  scale(0.5)  
                            translate(
                                -50 -50
)">
						<use xlink:href="#picture" fill="url(#picture-gradient)"  />
				</g>
			</g>

		



	</svg>
