
	<svg xmlns="http://www.w3.org/2000/svg" xmlns:xlink="http://www.w3.org/1999/xlink" version="1.1" width="128" height="128" viewBox="0 0 100 100">


		<defs>
			false
			
	<linearGradient id="background-gradient" x1="0" y1="0" y2="1" x2="0" >
		<stop stop-color="#fff" offset="0%"/>
		<stop stop-color="#000" offset="100%"/>
	</linearGradient>

			
			
			<g transform="scale(3.3333333333333335)" id="picture"><path d="M15 0C6.7 0 0 6.7 0 15s6.7 15 15 15 15-6.7 15-15S23.3 0 15 0zm0 28C7.8 28 2 22.2 2 15S7.8 2 15 2s13 5.8 13 13-5.8 13-13 13z M19.5 18h-9c-.3 0-.5.2-.5.5 0 3 2.2 5.5 5 5.5s5-2.5 5-5.5c0-.3-.2-.5-.5-.5zM15 23c-2.1 0-3.8-1.8-4-4h8c-.2 2.2-1.9 4-4 4zm7-12c-1.7 0-3 1.3-3 3 0 .3.2.5.5.5s.5-.2.5-.5c0-1.1.9-2 2-2s2 .9 2 2c0 .3.2.5.5.5s.5-.2.5-.5c0-1.7-1.3-3-3-3zm-10 2c0-1.7-1.3-3-3-3s-3 1.3-3 3 1.3 3 3 3 3-1.3 3-3zm-3 2c-1.1 0-2-.9-2-2s.9-2 2-2 2 .9 2 2-.9 2-2 2z"/></g>
			
	<linearGradient id="picture-gradient" x1="0" y1="0" y2="1" x2="0" >
		<stop stop-color="#00ffc2" offset="0%"/>
		<stop stop-color="#7000ff" offset="100%"/>
	</linearGradient>

		</defs>

		

			<use xlink:href="#background" fill="url(#background-gradient)" />

		

			<g mask="url(#mask)">
				<g transform="
				        translate(
                                50 50
)
                            translate(0 0)  scale(0.5)  
                            translate(
                                -50 -50
)">
						<use xlink:href="#picture" fill="url(#picture-gradient)"  />
				</g>
			</g>

		



	</svg>
