
	<svg xmlns="http://www.w3.org/2000/svg" xmlns:xlink="http://www.w3.org/1999/xlink" version="1.1" width="128" height="128" viewBox="0 0 100 100">


		<defs>
			false
			
	<linearGradient id="background-gradient" x1="0" y1="0" y2="1" x2="0" >
		<stop stop-color="#fff" offset="0%"/>
		<stop stop-color="#000" offset="100%"/>
	</linearGradient>

			
			
			<g transform="scale(3.125) translate(0 1)" id="picture"><path d="M23.5 20h-15c-.2 0-.4.1-.4.3s-.1.4 0 .5C10.2 23.5 13 25 16 25s5.8-1.5 7.9-4.2c.1-.2.1-.4.1-.5s-.3-.3-.5-.3zM16 24c-2.4 0-4.6-1.1-6.4-3h12.8c-1.8 1.9-4 3-6.4 3z M32 11c0-3.3-2.4-6.2-5.7-6.9C23.5 1.5 19.9 0 16 0S8.5 1.5 5.7 4.1c-.3.1-.5.2-.7.2-1.1.3-2.1.9-2.9 1.8C.7 7.4 0 9.1 0 11c0 1.3.4 2.5 1 3.6v.4c0 8.3 6.7 15 15 15s15-6.7 15-15v-.4c.3-.5.6-1.1.8-1.8.1-.6.2-1.2.2-1.8zm-2 0c0 .4-.1.8-.2 1.3-.1.6-.4 1.1-.7 1.5-.1.2-.3.4-.5.6-1 1-2.2 1.6-3.6 1.6-2.8 0-5-2.2-5-5 0-1.4.6-2.7 1.6-3.6.6-.6 1.3-1 2.1-1.2.4-.1.9-.2 1.3-.2.2 0 .5 0 .7.1 2.5.3 4.3 2.4 4.3 4.9zm-6.7-6.8c-.1 0-.1 0 0 0-1.2.3-2.2.9-3.1 1.7C19 7 18.3 8.4 18.1 10h-4.2c-.4-2.8-2.5-5.1-5.2-5.8C10.9 2.8 13.4 2 16 2s5.1.8 7.3 2.2zM3.5 7.5c.6-.6 1.3-1 2.1-1.3.2 0 .4-.1.7-.1.2-.1.5-.1.7-.1 2.8 0 5 2.2 5 5 0 .5-.1 1-.2 1.5-.2.8-.7 1.5-1.2 2.1-1 .9-2.3 1.4-3.6 1.4-1.7 0-3.2-.8-4.1-2.2C2.3 13 2 12 2 11c0-1.3.5-2.6 1.5-3.5zM16 28C9.5 28 4 23.1 3.1 16.8 4.3 17.6 5.6 18 7 18c1.9 0 3.6-.7 5-2.1.8-.8 1.4-1.8 1.7-2.9.2-.7.3-1.3.3-2h4c0 3.9 3.1 7 7 7 1.4 0 2.7-.4 3.9-1.2C28 23.1 22.5 28 16 28z M7.5 13h2c.3 0 .5-.2.5-.5s-.2-.5-.5-.5h-2c-.3 0-.5.2-.5.5s.2.5.5.5zm17.5-.5c0 .3.2.5.5.5h2c.3 0 .5-.2.5-.5s-.2-.5-.5-.5h-2c-.3 0-.5.2-.5.5z"/></g>
			
	<linearGradient id="picture-gradient" x1="0" y1="0" y2="1" x2="0" >
		<stop stop-color="#00ffc2" offset="0%"/>
		<stop stop-color="#7000ff" offset="100%"/>
	</linearGradient>

		</defs>

		

			<use xlink:href="#background" fill="url(#background-gradient)" />

		

			<g mask="url(#mask)">
				<g transform="
				        translate(
                                50 50
)
                            translate(0 0)  scale(0.5)  
                            translate(
                                -50 -50
)">
						<use xlink:href="#picture" fill="url(#picture-gradient)"  />
				</g>
			</g>

		



	</svg>
