
	<svg xmlns="http://www.w3.org/2000/svg" xmlns:xlink="http://www.w3.org/1999/xlink" version="1.1" width="128" height="128" viewBox="0 0 100 100">



		        <defs>
		            
	<linearGradient id="picture-gradient" x1="0" y1="0" y2="1" x2="0" >
		<stop stop-color="#cffeef" offset="0%"/>
		<stop stop-color="#6bfbaf" offset="0%"/>
	</linearGradient>

		        </defs>

            <g transform="
                    translate(50 50)
                    translate(0 0)  scale(0.55)  
                    translate(-50 -50)
                    ">

            <g fill="url(#picture-gradient)">

                <g transform="scale(3.3333333333333335) translate(0 2.1606683731079102e-7)" id="picture"><path d="M15.5 30C8.8 30 3 25.6 3 20.5c0-3.6 5.9-10.1 6.1-10.3.1-.1.3-.2.4-.2h11c.1 0 .3.1.4.2.3.3 6.1 6.7 6.1 10.3 0 5.2-5.2 9.5-11.5 9.5zM9.7 11C8.8 12 4 17.6 4 20.5 4 25 9.4 29 15.5 29c5.8 0 10.5-3.8 10.5-8.5 0-2.6-4-7.6-5.7-9.5H9.7zm10.8-2h-11c-.3 0-.5-.2-.5-.5s.2-.5.5-.5h11c.3 0 .5.2.5.5s-.2.5-.5.5zm0-2h-11c-.2 0-.4-.1-.5-.3l-2-6c0-.2 0-.5.2-.6.2-.1.4-.1.6 0l4.7 2.8L15.2.2c.2-.2.5-.2.7 0l2.7 2.7L23.3.1c.1-.1.4-.1.5 0 .2.2.2.4.1.6l-3 6c0 .2-.2.3-.4.3zM9.9 6h10.3l2.1-4.2-3.5 2.1c-.2.1-.5.1-.7 0l-2.6-2.6-2.6 2.6c-.2.1-.5.1-.7 0L8.4 1.6 9.9 6z M15.5 26c-1.9 0-3.4-1-3.5-2.5 0-.3.2-.5.5-.5.2 0 .5.2.5.5.1.9 1.1 1.5 2.5 1.5s2.5-.8 2.5-1.7c0-1.1-1.4-1.5-2.4-1.7l-.3-.1c-2.2-.4-3.3-1.3-3.3-2.7 0-1.5 1.6-2.8 3.5-2.8s3.4 1 3.5 2.5c0 .3-.2.5-.5.5s-.5-.2-.5-.5c-.1-.9-1.1-1.5-2.5-1.5s-2.5.8-2.5 1.8c0 1.1 1.4 1.5 2.4 1.7l.3.1c2.2.4 3.3 1.3 3.3 2.7 0 1.5-1.6 2.7-3.5 2.7z M15.5 27c-.3 0-.5-.2-.5-.5v-11c0-.3.2-.5.5-.5s.5.2.5.5v11c0 .3-.2.5-.5.5z"/></g>

            </g>

            </g>


	</svg>
