
	<svg xmlns="http://www.w3.org/2000/svg" xmlns:xlink="http://www.w3.org/1999/xlink" version="1.1" width="128" height="128" viewBox="0 0 100 100">


		<defs>
			false
			
	<linearGradient id="background-gradient" x1="0" y1="0" y2="1" x2="0" >
		<stop stop-color="#fff" offset="0%"/>
		<stop stop-color="#000" offset="100%"/>
	</linearGradient>

			
			
			<g transform="scale(3.3222590941082637) translate(0.10000000894069672 0.05000019073486328)" id="picture"><path d="M8.5 14.5C6 14.5 4 12.7 4 10.4c0-2.9 3.3-2.9 4.5-2.9s4.5 0 4.5 2.9c0 2.3-2 4.1-4.5 4.1zm0-6c-3.1 0-3.5.9-3.5 1.9 0 1.7 1.6 3.1 3.5 3.1s3.5-1.4 3.5-3.1c0-1-.4-1.9-3.5-1.9z M.5 14.8c-.2 0-.3-.1-.4-.2-.2-.3-.1-.6.1-.8l4-2.8c.2-.2.5-.1.7.1s.1.5-.1.7l-4 2.8c-.1.1-.2.2-.3.2zm10-6.3c-.1 0-.3-.1-.4-.2-.2-.2-.1-.5.1-.7C10.5 7.4 17.1 2 22 2c.3 0 .5.2.5.5s-.2.5-.5.5c-4.5 0-11.1 5.3-11.2 5.4-.1.1-.2.1-.3.1zm8 1c-.2 0-.4-.1-.5-.3-.1-.3 0-.5.3-.6l4-1.5c.3-.1.5 0 .6.3.1.3 0 .5-.3.6l-4 1.5h-.1zM15 26c-6.1 0-11-3.8-11-8.5 0-.3.2-.5.5-.5h21c.3 0 .5.2.5.5 0 4.7-4.9 8.5-11 8.5zM5 18c.3 3.9 4.7 7 10 7s9.6-3.1 10-7H5z M15 30C6.7 30 0 23.3 0 15S6.7 0 15 0s15 6.7 15 15-6.7 15-15 15zm0-29C7.3 1 1 7.3 1 15s6.3 14 14 14 14-6.3 14-14S22.7 1 15 1z M20.5 13c-.8 0-1.5-.7-1.5-1.5s.7-1.5 1.5-1.5 1.5.7 1.5 1.5-.7 1.5-1.5 1.5zm0-2c-.3 0-.5.2-.5.5s.2.5.5.5.5-.2.5-.5-.2-.5-.5-.5z"/></g>
			
	<linearGradient id="picture-gradient" x1="0" y1="0" y2="1" x2="0" >
		<stop stop-color="#00ffc2" offset="0%"/>
		<stop stop-color="#7000ff" offset="100%"/>
	</linearGradient>

		</defs>

		

			<use xlink:href="#background" fill="url(#background-gradient)" />

		

			<g mask="url(#mask)">
				<g transform="
				        translate(
                                50 50
)
                            translate(0 0)  scale(0.5)  
                            translate(
                                -50 -50
)">
						<use xlink:href="#picture" fill="url(#picture-gradient)"  />
				</g>
			</g>

		



	</svg>
