
	<svg xmlns="http://www.w3.org/2000/svg" xmlns:xlink="http://www.w3.org/1999/xlink" version="1.1" width="128" height="128" viewBox="0 0 100 100">



		        <defs>
		            
	<linearGradient id="picture-gradient" x1="0" y1="0" y2="1" x2="0" >
		<stop stop-color="#00ffc2" offset="0%"/>
		<stop stop-color="#7000ff" offset="100%"/>
	</linearGradient>

		        </defs>

            <g transform="
                    translate(50 50)
                    translate(0 0)  scale(0.5)  
                    translate(-50 -50)
                    ">

            <g fill="url(#picture-gradient)">

                <g transform="scale(3.125) translate(0 1)" id="picture"><path d="M23.1 20.2C21.2 22.6 18.7 24 16 24c-2.7 0-5.2-1.4-7.1-3.8-.2-.2-.5-.3-.7-.1-.2.2-.3.5-.1.7C10.2 23.5 13 25 16 25s5.8-1.5 7.9-4.2c.2-.2.1-.5-.1-.7-.2-.2-.5-.1-.7.1z M32 11c0-3.3-2.4-6.2-5.7-6.9C23.5 1.5 19.9 0 16 0S8.5 1.5 5.7 4.1c-.3.1-.5.2-.7.2-1.1.3-2.1.9-2.9 1.8C.7 7.4 0 9.1 0 11c0 1.3.4 2.5 1 3.6v.4c0 8.3 6.7 15 15 15s15-6.7 15-15v-.4c.3-.5.6-1.1.8-1.8.1-.6.2-1.2.2-1.8zm-2 0l-5-5c.2 0 .5 0 .7.1 2.5.3 4.3 2.4 4.3 4.9zm-6.3-4.8l6.1 6.1c-.1.6-.4 1.1-.7 1.5 0 .1-.1.1-.2.2l-7-7c.6-.4 1.2-.7 1.8-.8zm-2.4 1.5l7 7c-.9.8-2.1 1.3-3.3 1.3-2.8 0-5-2.2-5-5 0-1.2.5-2.4 1.3-3.3zm2-3.5c-.1 0-.1 0 0 0-1.2.3-2.2.9-3.1 1.7-.9.9-1.6 1.9-1.9 3.1h-4.6c-.7-2.3-2.6-4.2-5-4.8C10.9 2.8 13.4 2 16 2s5.1.8 7.3 2.2zm-12.4 10l-7-7c.5-.4 1.1-.7 1.7-.9l6.2 6.2c-.2.6-.5 1.2-.9 1.7zm1.1-2.9L6.7 6H7c2.8 0 5 2.2 5 5v.3zm1.9-1.3h4.2c0 .3-.1.7-.1 1h-4c0-.3 0-.7-.1-1zM3.2 7.9l7 7c-.9.7-2 1.1-3.2 1.1-1.7 0-3.2-.8-4.1-2.2C2.3 13 2 12 2 11c0-1.2.4-2.2 1.2-3.1zM16 28C9.5 28 4 23.1 3.1 16.8 4.3 17.6 5.6 18 7 18c1.9 0 3.6-.7 5-2.1.8-.8 1.4-1.8 1.7-2.9.1-.3.2-.7.2-1h4.2c.5 3.4 3.4 6 6.9 6 1.4 0 2.7-.4 3.9-1.2C28 23.1 22.5 28 16 28z"/></g>

            </g>

            </g>


	</svg>
