
	<svg xmlns="http://www.w3.org/2000/svg" xmlns:xlink="http://www.w3.org/1999/xlink" version="1.1" width="128" height="128" viewBox="0 0 100 100">



		        <defs>
		            
	<linearGradient id="picture-gradient" x1="0" y1="0" y2="1" x2="0" >
		<stop stop-color="#cffeef" offset="0%"/>
		<stop stop-color="#6bfbaf" offset="0%"/>
	</linearGradient>

		        </defs>

            <g transform="
                    translate(50 50)
                    translate(0 0)  scale(0.55)  
                    translate(-50 -50)
                    ">

            <g fill="url(#picture-gradient)">

                <g transform="scale(1.941747572815534) translate(-4 -5.250000953674316)" id="picture"><path d="M54.2 19.9L32 8.6c-1.3-.7-3.2-.7-4.5 0L5.3 19.9C4.5 20.4 4 21 4 21.7s.5 1.4 1.3 1.8L12 27v13c0 .3.2.7.5.9.3.1 6.9 4.1 17.5 4.1 5 0 9-.9 12-1.8v3c-1.7.4-3 2-3 3.9 0 2.2 1.8 4 4 4s4-1.8 4-4c0-1.9-1.3-3.4-3-3.9v-3.6c2.2-.8 3.4-1.6 3.5-1.6.3-.2.5-.5.5-.9V27c0-.1 0-.2-.1-.3l6.2-3.2c.8-.4 1.3-1.1 1.3-1.8.1-.7-.4-1.3-1.2-1.8zM45 50c0 1.1-.9 2-2 2s-2-.9-2-2 .9-2 2-2 2 .9 2 2zm-15-7c-8.5 0-14.3-2.7-16-3.6V28l13.5 6.9c.6.3 1.4.5 2.2.5.8 0 1.6-.2 2.2-.5l10-5.1v11.3C39.1 42 35 43 30 43zm16-3.6c-.4.2-1.1.5-2 .9V28.8l2-1v11.6zm7.3-17.6L31.1 33.1c-.7.4-2 .4-2.6 0L6.2 21.8l22.2-11.4c.7-.4 2-.4 2.6 0l22.3 11.4c0-.1 0-.1 0 0z M18.9 19.6c-.2-.5-.8-.7-1.3-.4l-4 2c-.5.2-.7.8-.4 1.3.2.4.5.6.9.6.1 0 .3 0 .4-.1l4-2c.4-.4.6-1 .4-1.4zm2.7 1.5l-4 2c-.5.2-.7.8-.4 1.3.2.4.5.6.9.6.1 0 .3 0 .4-.1l4-2c.5-.2.7-.8.4-1.3-.3-.5-.9-.7-1.3-.5z"/></g>

            </g>

            </g>


	</svg>
