
	<svg xmlns="http://www.w3.org/2000/svg" xmlns:xlink="http://www.w3.org/1999/xlink" version="1.1" width="128" height="128" viewBox="0 0 100 100">


		<defs>
			false
			
	<linearGradient id="background-gradient" x1="0" y1="0" y2="1" x2="0" >
		<stop stop-color="#fff" offset="0%"/>
		<stop stop-color="#000" offset="100%"/>
	</linearGradient>

			
			
			<g transform="scale(3.0211485237061577) translate(0.04999828338623047 0.1000000387430191)" id="picture"><path d="M24.9 15.6c0-.2-.2-.3-.3-.3l-6.3-1.8L22 .7c.1-.2 0-.5-.2-.6-.4-.2-.6-.1-.8.1L8.2 15.4c-.1.1-.1.3-.1.5.1.2.2.3.3.3l6.3 1.8-5.1 14.4c-.1.2 0 .5.2.6h.2c.1 0 .3-.1.4-.2L24.8 16c.1-.1.1-.2.1-.4zM11.4 30.1l4.5-12.3v-.4l-.3-.3-6.1-1.7L20.3 2.6l-3.2 11v.4c.1.1.2.2.3.2l6.1 1.7-12.1 14.2z"/></g>
			
	<linearGradient id="picture-gradient" x1="0" y1="0" y2="1" x2="0" >
		<stop stop-color="#cffeef" offset="0%"/>
		<stop stop-color="#6bfbaf" offset="0%"/>
	</linearGradient>

		</defs>

		

			<use xlink:href="#background" fill="url(#background-gradient)" />

		

			<g mask="url(#mask)">
				<g transform="
				        translate(
                                50 50
)
                            translate(0 0)  scale(0.55)  
                            translate(
                                -50 -50
)">
						<use xlink:href="#picture" fill="url(#picture-gradient)"  />
				</g>
			</g>

		



	</svg>
