
	<svg xmlns="http://www.w3.org/2000/svg" xmlns:xlink="http://www.w3.org/1999/xlink" version="1.1" width="128" height="128" viewBox="0 0 100 100">


		<defs>
			false
			
	<linearGradient id="background-gradient" x1="0" y1="0" y2="1" x2="0" >
		<stop stop-color="#fff" offset="0%"/>
		<stop stop-color="#000" offset="100%"/>
	</linearGradient>

			
			
			<g transform="scale(3.3333333333333335)" id="picture"><path d="M15 0C6.7 0 0 6.7 0 15s6.7 15 15 15 15-6.7 15-15S23.3 0 15 0zm0 28C7.8 28 2 22.2 2 15S7.8 2 15 2s13 5.8 13 13-5.8 13-13 13z M7.5 11.5c.3 0 .5-.2.5-.5 0-1.1.9-2 2-2s2 .9 2 2c0 .3.2.5.5.5s.5-.2.5-.5c0-1.7-1.3-3-3-3s-3 1.3-3 3c0 .3.2.5.5.5zm10 0c.3 0 .5-.2.5-.5 0-1.1.9-2 2-2s2 .9 2 2c0 .3.2.5.5.5s.5-.2.5-.5c0-1.7-1.3-3-3-3s-3 1.3-3 3c0 .3.2.5.5.5zm6.2 3.5c-.2-.1-.4-.1-.5.1-4.5 3.8-11.8 3.8-16.4 0-.1-.1-.3-.1-.5-.1-.2.1-.3.3-.3.5v.5c0 5 4 9 9 9s9-4 9-9v-.5c0-.2-.1-.4-.3-.5zM7 16.5c1.5 1.1 3.2 1.8 5 2.1v4.7c-2.8-1-4.8-3.6-5-6.8zm6 7.2v-4.9c1.3.2 2.7.2 4 0v4.9c-.6.2-1.3.3-2 .3s-1.4-.1-2-.3zm5-.3v-4.7c1.8-.4 3.5-1.1 5-2.1-.2 3.1-2.2 5.7-5 6.8z M9 11c0 .6.4 1 1 1s1-.4 1-1-.4-1-1-1-1 .4-1 1zm1 0v-.5.5zm9 0c0 .6.4 1 1 1s1-.4 1-1-.4-1-1-1-1 .4-1 1zm1 0v-.5.5z"/></g>
			
	<linearGradient id="picture-gradient" x1="0" y1="0" y2="1" x2="0" >
		<stop stop-color="#00ffc2" offset="0%"/>
		<stop stop-color="#7000ff" offset="100%"/>
	</linearGradient>

		</defs>

		

			<use xlink:href="#background" fill="url(#background-gradient)" />

		

			<g mask="url(#mask)">
				<g transform="
				        translate(
                                50 50
)
                            translate(0 0)  scale(0.5)  
                            translate(
                                -50 -50
)">
						<use xlink:href="#picture" fill="url(#picture-gradient)"  />
				</g>
			</g>

		



	</svg>
