
	<svg xmlns="http://www.w3.org/2000/svg" xmlns:xlink="http://www.w3.org/1999/xlink" version="1.1" width="128" height="128" viewBox="0 0 100 100">


		<defs>
			false
			
	<linearGradient id="background-gradient" x1="0" y1="0" y2="1" x2="0" >
		<stop stop-color="#fff" offset="0%"/>
		<stop stop-color="#000" offset="100%"/>
	</linearGradient>

			
			
			<g transform="scale(3.3333333333333335)" id="picture"><path d="M15 0C6.7 0 0 6.7 0 15s6.7 15 15 15 15-6.7 15-15S23.3 0 15 0zm0 28C7.8 28 2 22.2 2 15S7.8 2 15 2s13 5.8 13 13-5.8 13-13 13z M22.1 20.2C20.2 22.6 17.7 24 15 24c-2.7 0-5.2-1.4-7.1-3.8-.2-.2-.5-.3-.7-.1-.2.2-.3.5-.1.7C9.2 23.5 12 25 15 25s5.8-1.5 7.9-4.2c.2-.2.1-.5-.1-.7-.2-.2-.5-.1-.7.1zm-10.6-4.3c.1.1.2.1.3.1s.2 0 .3-.1c.2-.1.2-.4.2-.6l-.9-2.7 2.5-1.7c.1-.1.1-.3.1-.5s-.3-.4-.5-.4h-3.1l-.9-2.7c-.1-.4-.8-.4-.9 0l-1 2.8H4.5c-.2 0-.4.1-.5.3s0 .4.2.6l2.5 1.7-.9 2.7c-.1.2 0 .4.2.6.2.1.4.1.6 0L9 14.2l2.5 1.7zm-4.3-1.7l.6-1.6c.1-.2 0-.5-.2-.6l-1.4-1H8c.2 0 .4-.1.5-.3L9 9l.6 1.7c.1.2.3.3.5.3h1.8l-1.4 1c-.2.1-.3.4-.2.6l.6 1.6-1.5-1c-.1-.1-.2-.1-.3-.1s-.2 0-.3.1l-1.6 1zM26 10.4c-.1-.2-.3-.4-.5-.4h-3.1l-.9-2.7c-.1-.4-.8-.4-.9 0l-.9 2.7h-3.1c-.2 0-.4.1-.5.4s0 .4.2.6l2.5 1.7-.9 2.7c-.1.2 0 .4.2.6.2.1.4.1.6 0l2.5-1.7 2.5 1.7c.1.1.2.1.3.1.1 0 .2 0 .3-.1.2-.1.2-.4.2-.6l-.9-2.7 2.5-1.7c-.1-.2-.1-.4-.1-.6zM22.4 12c-.2.1-.3.4-.2.6l.6 1.6-1.5-1c-.1-.1-.2-.1-.3-.1s-.2 0-.3.1l-1.5 1 .6-1.6c.1-.2 0-.5-.2-.6l-1.4-1H20c.2 0 .4-.1.5-.3L21 9l.6 1.7c.1.2.3.3.5.3h1.8l-1.5 1z"/></g>
			
	<linearGradient id="picture-gradient" x1="0" y1="0" y2="1" x2="0" >
		<stop stop-color="#00ffc2" offset="0%"/>
		<stop stop-color="#7000ff" offset="100%"/>
	</linearGradient>

		</defs>

		

			<use xlink:href="#background" fill="url(#background-gradient)" />

		

			<g mask="url(#mask)">
				<g transform="
				        translate(
                                50 50
)
                            translate(0 0)  scale(0.5)  
                            translate(
                                -50 -50
)">
						<use xlink:href="#picture" fill="url(#picture-gradient)"  />
				</g>
			</g>

		



	</svg>
