
	<svg xmlns="http://www.w3.org/2000/svg" xmlns:xlink="http://www.w3.org/1999/xlink" version="1.1" width="128" height="128" viewBox="0 0 100 100">



		        <defs>
		            
	<linearGradient id="picture-gradient" x1="0" y1="0" y2="1" x2="0" >
		<stop stop-color="#cffeef" offset="0%"/>
		<stop stop-color="#6bfbaf" offset="0%"/>
	</linearGradient>

		        </defs>

            <g transform="
                    translate(50 50)
                    translate(0 0)  scale(0.55)  
                    translate(-50 -50)
                    ">

            <g fill="url(#picture-gradient)">

                <g transform="scale(3.5211268078592703) translate(-0.75 -0.5999996066093445)" id="picture"><path d="M15.2 11.2c-.1 0-.3-.1-.4-.1-.9-.9-2-1.6-3.3-2-.1 0-.1 0-.1-.1L9.2 7.4C9.1 7.3 9 7.1 9 7V5.3l-1.3.6c-.2.1-.4.1-.6-.1L4.6 3.3c-.1-.1-.1-.2-.1-.3 0-.1.1-.3.2-.4 1.7-1.6 4-2 6.2-1 2.6 1.2 5.1 4.5 4.9 9.2 0 .2-.1.4-.3.4h-.3zm-3.2-3c1 .3 2 .8 2.8 1.5-.2-3.7-2.2-6.2-4.3-7.1-1.7-.9-3.4-.7-4.8.4l1.9 1.9L9.3 4c.1 0 .3 0 .5.1.1 0 .2.2.2.4v2.2l2 1.5z M2.5 14c-.1 0-.2 0-.3-.1-.1-.1-.2-.3-.2-.4 0-2.1 1.2-3.8 3.4-4.7C8.6 7.3 13 8 15.6 10.4c.1.1.2.3.1.5 0 .2-.2.3-.4.4L8 12.8c-.2 0-.4 0-.5-.2l-.5-.7-.5.9-.3.3-3.6.9h-.1zm6.6-5c-1.2 0-2.4.2-3.3.7-1 .4-2.5 1.3-2.8 3.1l2.8-.7.7-1.4c.1-.2.2-.3.4-.3s.3.1.4.2l.8 1 5.9-1.3C12.6 9.4 10.8 9 9.1 9z M15.2 11.2H15c-.2-.1-.3-.3-.3-.5 0-4 2.5-8.1 5.6-9.3 2-.8 3.9-.4 5.5 1.2.2.2.2.5 0 .7l-2.5 2.5c-.1.2-.4.2-.6.1l-.7-.5V7c0 .2-.1.3-.2.4L19 9h-.1c-1.3.4-2.4 1.1-3.3 2-.1.2-.2.2-.4.2zM22.3 2c-.6 0-1.1.1-1.6.3-2.5 1-4.5 4-4.9 7.2.8-.6 1.7-1.1 2.7-1.4L21 6.7V4.5c0-.2.1-.4.3-.4.2-.1.4-.1.5 0l1.2.8L24.8 3c-.9-.7-1.7-1-2.5-1z M27.5 14h-.1l-3.2-.9c-.2 0-.3-.2-.3-.3l-.4-1.1-.5 1c-.1.2-.3.3-.6.3l-7.3-1.8c-.2 0-.3-.2-.4-.3s0-.4.1-.5c2.2-2.3 6.5-3.1 9.7-1.7 2.2.9 3.4 2.7 3.4 4.8 0 .2-.1.3-.2.4 0 0-.1.1-.2.1zm-2.8-1.8l2.3.6c-.3-1.9-1.8-2.8-2.7-3.2-2.5-1.1-5.9-.6-7.9.9l5.9 1.4.8-1.6c.1-.2.3-.3.5-.3s.4.1.4.3l.7 1.9z M17.5 29h-5c-.1 0-.3-.1-.4-.2-.1-.1-.1-.2-.1-.4l1.5-17.1c0-.3.3-.5.5-.5.3 0 .5.3.5.5L13 28h4l-1-16.6c0-.3.2-.5.5-.5s.5.2.5.5l1 17.1c0 .1 0 .3-.1.4-.1 0-.3.1-.4.1z M17 25h-4c-.3 0-.5-.2-.5-.5s.2-.5.5-.5h4c.3 0 .5.2.5.5s-.2.5-.5.5zm-.5-4h-3c-.3 0-.5-.2-.5-.5s.2-.5.5-.5h3c.3 0 .5.2.5.5s-.2.5-.5.5zm0-3.5h-3c-.3 0-.5-.2-.5-.5s.2-.5.5-.5h3c.3 0 .5.2.5.5s-.2.5-.5.5zm0-4H14c-.3 0-.5-.2-.5-.5s.2-.5.5-.5h2.5c.3 0 .5.2.5.5s-.2.5-.5.5z"/></g>

            </g>

            </g>


	</svg>
