
	<svg xmlns="http://www.w3.org/2000/svg" xmlns:xlink="http://www.w3.org/1999/xlink" version="1.1" width="128" height="128" viewBox="0 0 100 100">


		<defs>
			false
			
	<linearGradient id="background-gradient" x1="0" y1="0" y2="1" x2="0" >
		<stop stop-color="#fff" offset="0%"/>
		<stop stop-color="#000" offset="100%"/>
	</linearGradient>

			
			
			<g transform="scale(3.3333333333333335)" id="picture"><path d="M15 0C6.7 0 0 6.7 0 15s6.7 15 15 15 15-6.7 15-15S23.3 0 15 0zm0 28C7.8 28 2 22.2 2 15S7.8 2 15 2s13 5.8 13 13-5.8 13-13 13z M23.5 17h-17c-.3 0-.5.2-.5.5C6 21 9.9 25 15 25s9-4 9-7.5c0-.3-.2-.5-.5-.5zM17 18h2v2h-2v-2zm-6 0h2v2h-2v-2zm4 6c-4.2 0-7.6-3.2-8-6h3v2.5c0 .3.2.5.5.5h3c.3 0 .5-.2.5-.5V18h2v2.5c0 .3.2.5.5.5h3c.3 0 .5-.2.5-.5V18h3c-.4 2.8-3.8 6-8 6zm-5-10c1.1 0 2-1.3 2-3s-.9-3-2-3-2 1.3-2 3 .9 3 2 3zm0-5c.5 0 1 .9 1 2s-.5 2-1 2-1-.9-1-2 .5-2 1-2zm10 5c1.1 0 2-1.3 2-3s-.9-3-2-3-2 1.3-2 3 .9 3 2 3zm0-5c.5 0 1 .9 1 2s-.5 2-1 2-1-.9-1-2 .5-2 1-2z"/></g>
			
	<linearGradient id="picture-gradient" x1="0" y1="0" y2="1" x2="0" >
		<stop stop-color="#00ffc2" offset="0%"/>
		<stop stop-color="#7000ff" offset="100%"/>
	</linearGradient>

		</defs>

		

			<use xlink:href="#background" fill="url(#background-gradient)" />

		

			<g mask="url(#mask)">
				<g transform="
				        translate(
                                50 50
)
                            translate(0 0)  scale(0.5)  
                            translate(
                                -50 -50
)">
						<use xlink:href="#picture" fill="url(#picture-gradient)"  />
				</g>
			</g>

		



	</svg>
