
	<svg xmlns="http://www.w3.org/2000/svg" xmlns:xlink="http://www.w3.org/1999/xlink" version="1.1" width="128" height="128" viewBox="0 0 100 100">



		        <defs>
		            
	<linearGradient id="picture-gradient" x1="0" y1="0" y2="1" x2="0" >
		<stop stop-color="#cffeef" offset="0%"/>
		<stop stop-color="#6bfbaf" offset="0%"/>
	</linearGradient>

		        </defs>

            <g transform="
                    translate(50 50)
                    translate(0 0)  scale(0.55)  
                    translate(-50 -50)
                    ">

            <g fill="url(#picture-gradient)">

                <g transform="scale(3.3333333333333335) translate(0.049999237060546875 2.384185791015625e-7)" id="picture"><path d="M.5 30c-.1 0-.2 0-.2-.1-.2-.1-.3-.4-.2-.7 5.1-9.1 10-17.7 21.2-23.2.2-.1.5 0 .7.2.1.2 0 .5-.2.7C10.8 12.3 6.2 20.4.9 29.7c-.1.2-.2.3-.4.3z M8.8 22c-1.5 0-2.6-.7-3.1-1.9-2.5-5.6 2.7-11.2 3-11.4.1-.1.3-.2.4-.1.2 0 .3.1.4.2l.8 1.4c.2-1.1.6-2.5 1.1-3.1.8-.9 4.9-3.2 5.4-3.5.2-.1.4-.1.6.1l1 1 .6-1.9.3-.3c.3-.1 6.4-2.3 10.1-2.5.2 0 .3.1.4.2.1.1.1.3 0 .5l-5 10c-.1.1-.2.2-.4.3l-4.9.7 2.5.8c.1 0 .2.1.3.3s.1.3 0 .4c-.7 2-8.6 8.6-13.4 8.8h-.1zm.1-12.2c-1.2 1.4-4.2 5.7-2.3 9.8C7 20.6 7.8 21 9 21c4.1-.2 10.8-5.7 12.3-7.7l-4-1.3c-.2-.1-.4-.3-.3-.5s.2-.4.4-.4l6.7-1 4.5-9c-3.3.4-7.8 2-8.8 2.3L19 5.7c-.1.1-.2.3-.4.3s-.3 0-.5-.1l-1.2-1.2c-1.7 1-4.3 2.5-4.8 3.1-.5.6-1 2.7-1.1 3.9 0 .2-.2.4-.4.4s-.4-.1-.5-.2L8.9 9.8z"/></g>

            </g>

            </g>


	</svg>
